HIERARCHY
ROOT Hips
{
	OFFSET -0.001795 -0.223333 0.028219
	CHANNELS 6 Xposition Yposition Zposition Zrotation Yrotation Xrotation 
	JOINT LeftUpLeg
	{
		OFFSET 0.069520 -0.091406 -0.006815
		CHANNELS 3 Zrotation Yrotation Xrotation
		JOINT LeftLeg
		{
			OFFSET 0.034277 -0.375199 -0.004496
			CHANNELS 3 Zrotation Yrotation Xrotation
			JOINT LeftFoot
			{
				OFFSET -0.013596 -0.397961 -0.043693
				CHANNELS 3 Zrotation Yrotation Xrotation
				JOINT LeftToe
				{
					OFFSET 0.026358 -0.055791 0.119288
					CHANNELS 3 Zrotation Yrotation Xrotation
					End Site
					{
						OFFSET 0.000000 0.000000 0.000000
					}
				}
			}
		}
	}
	JOINT RightUpLeg
	{
		OFFSET -0.067670 -0.090522 -0.004320
		CHANNELS 3 Zrotation Yrotation Xrotation
		JOINT RightLeg
		{
			OFFSET -0.038290 -0.382569 -0.008850
			CHANNELS 3 Zrotation Yrotation Xrotation
			JOINT RightFoot
			{
				OFFSET 0.015774 -0.398415 -0.042312
				CHANNELS 3 Zrotation Yrotation Xrotation
				JOINT RightToe
				{
					OFFSET -0.025372 -0.048144 0.123348
					CHANNELS 3 Zrotation Yrotation Xrotation
					End Site
					{
						OFFSET 0.000000 0.000000 0.000000
					}
				}
			}
		}
	}
	JOINT Spine
	{
		OFFSET -0.002533 0.108963 -0.026696
		CHANNELS 3 Zrotation Yrotation Xrotation
		JOINT Spine1
		{
			OFFSET 0.005487 0.135180 0.001092
			CHANNELS 3 Zrotation Yrotation Xrotation
			JOINT Spine2
			{
				OFFSET 0.001457 0.052922 0.025425
				CHANNELS 3 Zrotation Yrotation Xrotation
				JOINT Neck
				{
					OFFSET -0.002778 0.213870 -0.042857
					CHANNELS 3 Zrotation Yrotation Xrotation
					JOINT Head
					{
						OFFSET 0.005152 0.064970 0.051349
						CHANNELS 3 Zrotation Yrotation Xrotation
						End Site
						{
							OFFSET 0.000000 0.000000 0.000000
						}
					}
				}
				JOINT LeftShoulder
				{
					OFFSET 0.078845 0.121749 -0.034090
					CHANNELS 3 Zrotation Yrotation Xrotation
					JOINT LeftArm
					{
						OFFSET 0.090977 0.030469 -0.008868
						CHANNELS 3 Zrotation Yrotation Xrotation
						JOINT LeftForeArm
						{
							OFFSET 0.259612 -0.012772 -0.027456
							CHANNELS 3 Zrotation Yrotation Xrotation
							JOINT LeftHand
							{
								OFFSET 0.249234 0.008986 -0.001171
								CHANNELS 3 Zrotation Yrotation Xrotation
								End Site
								{
									OFFSET 0.000000 0.000000 0.000000
								}
							}
						}
					}
				}
				JOINT RightShoulder
				{
					OFFSET -0.081759 0.118833 -0.038615
					CHANNELS 3 Zrotation Yrotation Xrotation
					JOINT RightArm
					{
						OFFSET -0.096012 0.032551 -0.009143
						CHANNELS 3 Zrotation Yrotation Xrotation
						JOINT RightForeArm
						{
							OFFSET -0.253742 -0.013329 -0.021401
							CHANNELS 3 Zrotation Yrotation Xrotation
							JOINT RightHand
							{
								OFFSET -0.255298 0.007772 -0.005559
								CHANNELS 3 Zrotation Yrotation Xrotation
								End Site
								{
									OFFSET 0.000000 0.000000 0.000000
								}
							}
						}
					}
				}
			}
		}
	}
}
MOTION
Frames: 17
Frame Time: 0.050000
0.000000 0.937599 0.000000 -3.293332 -13.476708 8.733248 9.061178 0.172602 -16.997814 -4.021851 0.716511 7.526689 12.922038 23.105260 17.467636 0.000000 0.000000 0.000000 -5.366272 1.937323 -21.207960 7.244666 -0.556718 9.376744 -5.074276 -17.430668 19.174147 0.000000 0.000000 0.000000 0.485337 -0.298434 28.336834 -5.757854 1.711016 -23.751296 -3.937148 5.211893 26.423392 12.582218 -6.036395 -25.827852 0.000000 0.000000 0.000000 -14.318740 -24.863975 12.263115 -37.662661 -34.169338 3.812163 -4.667075 -48.624871 4.879413 0.000000 0.000000 0.000000 28.305721 10.789633 4.351244 48.825226 25.912049 3.532965 13.469591 38.335993 6.277127 0.000000 0.000000 0.000000 
0.005037 0.936392 -0.008612 -4.551639 -15.163056 9.636319 10.135153 0.524020 -18.560106 -3.935387 0.779345 8.758615 13.937302 24.268649 17.938879 0.000000 0.000000 0.000000 -3.733990 2.269234 -21.892769 6.451890 -0.402995 8.607451 -4.007191 -15.905940 18.112372 0.000000 0.000000 0.000000 -0.578017 0.209966 29.753961 -5.130626 1.535604 -23.263182 -3.461608 4.275309 25.721864 12.289503 -6.091844 -25.359393 0.000000 0.000000 0.000000 -15.096105 -24.136527 12.546156 -36.172330 -33.997204 3.447488 -3.101681 -50.051780 4.532323 0.000000 0.000000 0.000000 26.385403 9.832625 2.996699 51.420030 25.300178 3.888913 14.905231 38.614761 6.654752 0.000000 0.000000 0.000000 
0.009929 0.935530 -0.018038 -4.971089 -14.909305 10.247368 10.422554 0.641815 -19.928229 -3.896681 0.769157 8.881603 13.836569 24.119981 17.943417 0.000000 0.000000 0.000000 -3.665189 2.401972 -22.862067 6.910850 -0.467358 8.312089 -4.416398 -16.588323 18.472707 0.000000 0.000000 0.000000 -0.191637 0.084558 30.374766 -4.639694 1.401791 -22.439849 -4.676672 3.603623 25.166738 11.371405 -6.410811 -20.996940 0.000000 0.000000 0.000000 -17.470263 -25.955483 14.232105 -30.568941 -34.098529 2.382694 2.776340 -45.424115 1.317000 0.000000 0.000000 0.000000 28.123281 9.964418 2.871283 51.780330 23.855569 3.386234 12.879938 38.737593 5.975410 0.000000 0.000000 0.000000 
0.014204 0.936526 -0.028336 -5.629608 -16.282796 11.351639 11.660035 1.103317 -21.469536 -5.030951 1.076036 9.129430 14.526415 24.647362 19.391646 0.000000 0.000000 0.000000 -3.493917 2.713650 -24.504594 7.013551 -0.442890 8.008896 -2.843338 -14.656511 19.530713 0.000000 0.000000 0.000000 -0.515109 0.363699 31.154629 -5.876645 1.674852 -22.689959 -3.803873 2.027405 25.777348 10.875583 -6.595967 -20.072495 0.000000 0.000000 0.000000 -19.445460 -26.454116 15.800700 -25.632691 -34.112187 1.299659 7.215620 -43.783930 -0.536965 0.000000 0.000000 0.000000 29.015180 9.750308 1.680524 50.263739 23.123649 3.135955 16.426001 38.647147 6.916945 0.000000 0.000000 0.000000 
0.017054 0.937547 -0.038308 -6.552375 -17.360171 12.108521 12.221652 1.447298 -22.676498 -4.354570 0.972423 9.653528 15.031959 24.934333 20.647474 0.000000 0.000000 0.000000 -3.871066 2.950292 -26.007415 8.450581 -0.575700 9.496132 -0.790699 -11.232239 18.320383 0.000000 0.000000 0.000000 -1.374195 0.785008 31.662459 -4.546400 1.315618 -21.165233 -4.334148 1.977533 25.587489 9.887165 -6.098039 -19.402163 0.000000 0.000000 0.000000 -19.420718 -26.735512 16.095979 -22.354062 -33.246143 0.592074 13.827257 -40.308652 -3.000473 0.000000 0.000000 0.000000 28.956922 10.744461 2.139893 50.388762 22.545919 2.954434 17.131018 40.670770 7.540871 0.000000 0.000000 0.000000 
0.018130 0.937865 -0.046797 -7.551627 -18.668985 13.520845 13.815555 2.084918 -23.765753 -5.223251 1.194162 9.233001 15.728234 25.433826 21.892337 0.000000 0.000000 0.000000 -4.653211 3.021570 -26.644186 8.422942 -0.516118 11.159717 -5.397441 -19.657394 24.566325 0.000000 0.000000 0.000000 -1.471636 1.065732 32.872108 -4.293387 1.209381 -23.075213 -3.968066 2.314429 26.777618 9.835982 -6.060238 -20.174046 0.000000 0.000000 0.000000 -20.791444 -25.805506 16.236961 -19.040752 -31.130818 -0.400898 15.567457 -40.219972 -3.679669 0.000000 0.000000 0.000000 28.927793 11.477778 2.541142 49.833548 21.657929 2.416916 18.396684 41.590732 8.204031 0.000000 0.000000 0.000000 
0.017242 0.935819 -0.053322 -7.851414 -19.724742 14.476376 14.705402 2.573440 -24.676218 -5.987733 1.406906 9.137805 16.361001 25.994179 22.408580 0.000000 0.000000 0.000000 -4.736710 3.101588 -26.744457 7.523485 -0.327832 12.366564 -5.484783 -20.144876 26.190926 0.000000 0.000000 0.000000 -1.169835 1.110929 33.206578 -5.646156 1.501898 -21.932353 -3.511707 2.679821 25.510163 9.020002 -5.262661 -21.431532 0.000000 0.000000 0.000000 -21.435523 -24.957266 15.995196 -18.023005 -29.711045 -0.673567 17.555504 -38.639003 -4.206882 0.000000 0.000000 0.000000 28.010767 11.340648 2.437078 51.251189 20.843972 2.304339 18.808691 42.440003 8.511840 0.000000 0.000000 0.000000 
0.014319 0.933444 -0.059122 -7.300633 -19.158491 14.670901 14.977812 2.781721 -26.110706 -6.907238 1.686575 10.092735 15.972319 25.578424 22.274628 0.000000 0.000000 0.000000 -5.519023 2.888538 -26.214964 7.220543 -0.283037 13.205679 -2.401699 -14.273999 18.749412 0.000000 0.000000 0.000000 -0.997268 1.124129 34.665037 -5.908729 1.570300 -22.119384 -3.479691 3.838062 25.425061 11.014271 -6.108008 -22.150296 0.000000 0.000000 0.000000 -21.719053 -25.318020 15.727294 -17.931236 -28.179066 -0.746637 17.159700 -37.801521 -4.085163 0.000000 0.000000 0.000000 28.843812 11.164450 3.044011 50.173371 21.306404 2.221583 17.428650 42.327651 8.195631 0.000000 0.000000 0.000000 
0.009519 0.930396 -0.065720 -6.711185 -18.456063 15.324166 15.641221 3.054919 -27.479911 -8.350391 2.014471 9.974061 15.598905 25.198994 22.219526 0.000000 0.000000 0.000000 -6.575870 2.766412 -26.598783 7.255223 -0.290637 14.285415 -0.576379 -9.128279 13.162912 0.000000 0.000000 0.000000 -0.952105 1.118591 35.552562 -5.918582 1.592096 -21.339098 -3.285703 4.733605 23.860794 11.698562 -6.243077 -21.859641 0.000000 0.000000 0.000000 -23.123134 -24.613838 15.214246 -18.106216 -27.066670 -0.760015 16.980415 -36.829561 -3.914620 0.000000 0.000000 0.000000 29.953101 10.965950 3.522671 48.613021 21.038071 2.009098 16.075562 41.598903 7.653852 0.000000 0.000000 0.000000 
0.002782 0.927557 -0.074495 -5.929353 -17.656679 14.991730 16.435659 3.338347 -28.554144 -10.079534 2.516776 10.849788 14.980986 24.494822 22.391890 0.000000 0.000000 0.000000 -8.325642 2.535708 -27.044910 8.751348 -0.563806 15.927317 -1.949865 -10.100817 9.494889 0.000000 0.000000 0.000000 -0.633540 1.010488 36.870362 -6.476016 1.752804 -21.359597 -2.811920 4.787439 24.382522 10.452071 -5.023467 -24.255297 0.000000 0.000000 0.000000 -22.743283 -23.968671 14.497606 -18.409865 -27.056969 -0.734055 18.358224 -35.704778 -4.224767 0.000000 0.000000 0.000000 29.800270 11.576128 4.286756 48.172098 22.903586 2.548783 14.870281 40.704268 7.116898 0.000000 0.000000 0.000000 
-0.006532 0.923009 -0.085097 -5.341909 -16.721568 15.656037 16.609037 3.470274 -30.122824 -10.081948 2.442241 10.668813 14.537249 24.036158 22.417683 0.000000 0.000000 0.000000 -9.878821 2.573082 -30.034580 8.909692 -0.615626 19.376819 -5.297311 -16.653500 9.565270 0.000000 0.000000 0.000000 -0.690326 1.021857 38.179729 -4.512180 1.273490 -21.598481 -3.524166 6.887000 23.983278 11.635990 -5.015486 -25.598441 0.000000 0.000000 0.000000 -21.598548 -23.628132 13.131143 -19.358356 -27.238800 -0.478499 20.992859 -36.115314 -5.156282 0.000000 0.000000 0.000000 30.842175 12.022871 5.890163 46.710125 25.025816 2.934066 12.089617 39.031544 6.042720 0.000000 0.000000 0.000000 
-0.018682 0.918257 -0.096604 -4.433540 -15.474174 16.025102 17.297676 3.668753 -31.370501 -11.238001 2.618428 10.112347 13.868087 23.303559 22.747112 0.000000 0.000000 0.000000 -10.741565 2.602345 -33.068969 7.550925 -0.291605 23.595904 -8.639725 -23.175551 14.194951 0.000000 0.000000 0.000000 0.450826 0.495070 39.811879 -4.783050 1.354877 -23.026528 -2.756740 7.551389 24.509572 10.276877 -3.191767 -30.736936 0.000000 0.000000 0.000000 -21.292087 -23.946624 12.861958 -20.080195 -29.157437 -0.161688 21.738036 -33.963653 -5.058119 0.000000 0.000000 0.000000 29.228149 12.580452 6.806588 48.002119 27.290807 3.871089 9.077324 36.024113 4.623098 0.000000 0.000000 0.000000 
-0.034158 0.912593 -0.107386 -3.078120 -12.924137 15.404664 16.828680 3.267726 -32.492936 -10.967751 2.452851 10.409856 12.496417 21.930111 22.383694 0.000000 0.000000 0.000000 -11.701045 2.155467 -33.536147 8.063104 -0.609115 25.277065 -15.217324 -31.978646 21.738336 0.000000 0.000000 0.000000 2.105224 -0.518774 42.480131 -4.800668 1.399691 -23.305601 -3.207008 7.967642 22.747744 12.071090 -3.610160 -31.489205 0.000000 0.000000 0.000000 -20.524170 -24.948546 12.602362 -19.997422 -31.096145 0.290733 21.096180 -31.881357 -4.628049 0.000000 0.000000 0.000000 28.227697 12.601197 7.498112 49.265853 30.670632 5.567623 7.014638 32.588724 3.589982 0.000000 0.000000 0.000000 
-0.053141 0.907557 -0.117953 -1.662629 -10.611973 14.098288 16.870787 2.901433 -32.458690 -10.477899 2.222907 10.392401 9.407233 18.232283 22.492958 0.000000 0.000000 0.000000 -11.601870 1.902317 -34.294529 7.265589 -0.504966 28.810336 -22.980561 -38.609875 31.245967 0.000000 0.000000 0.000000 3.411677 -1.489558 44.704071 -4.717891 1.421883 -24.019627 -3.991915 8.404175 22.580196 13.547747 -3.928606 -32.529489 0.000000 0.000000 0.000000 -19.862203 -26.134346 12.592894 -20.882696 -32.684133 0.743086 22.248547 -31.948329 -5.047684 0.000000 0.000000 0.000000 29.491916 12.933926 8.525537 47.218857 32.061006 5.579590 5.626598 32.661194 3.231146 0.000000 0.000000 0.000000 
-0.074866 0.905723 -0.129052 -0.535470 -8.442271 13.211912 17.720533 2.727358 -31.782479 -10.172805 1.931603 8.816366 5.236886 13.187405 23.963101 0.000000 0.000000 0.000000 -11.908618 1.504838 -33.584057 8.353686 -1.095519 28.559393 -25.526737 -40.852601 31.913434 0.000000 0.000000 0.000000 4.972713 -2.631361 45.231111 -5.003177 1.529940 -24.043334 -4.320496 8.593415 22.282061 13.019095 -3.380282 -33.216803 0.000000 0.000000 0.000000 -20.898741 -26.870794 12.790675 -20.030759 -33.406094 0.795324 21.408421 -34.296965 -5.255483 0.000000 0.000000 0.000000 28.247827 13.467899 9.186301 46.287336 34.584232 6.392884 4.642044 32.185203 2.913466 0.000000 0.000000 0.000000 
-0.097212 0.905874 -0.140889 0.458557 -6.066932 12.661811 18.482551 2.587823 -31.838441 -8.905061 1.490034 7.397734 -0.511792 6.827598 27.451928 0.000000 0.000000 0.000000 -11.804413 1.235769 -34.332944 9.523185 -1.767900 29.348815 -30.730335 -44.080023 36.829236 0.000000 0.000000 0.000000 6.521951 -3.789878 44.981295 -5.115523 1.597728 -24.499375 -4.835524 8.455955 22.540559 12.893389 -3.104134 -33.830714 0.000000 0.000000 0.000000 -21.271005 -27.830546 13.141771 -20.661403 -34.190066 1.065374 19.590535 -38.228504 -5.316862 0.000000 0.000000 0.000000 27.393422 14.056022 9.739253 44.255876 35.826575 6.371025 2.751638 32.478823 2.402553 0.000000 0.000000 0.000000 
-0.118207 0.908733 -0.152205 1.154569 -5.119667 12.458568 19.972377 2.855128 -31.881598 -7.729114 1.211460 6.894673 -3.835592 3.519516 29.832888 0.000000 0.000000 0.000000 -11.515121 1.188298 -35.102388 10.077162 -2.072181 29.223359 -33.705574 -45.281683 40.672110 0.000000 0.000000 0.000000 7.293452 -4.292617 44.557439 -6.269441 1.857438 -25.086143 -4.330614 7.369727 23.287125 10.899419 -2.363705 -33.395118 0.000000 0.000000 0.000000 -21.934615 -27.489453 13.320103 -23.356181 -34.768864 1.600079 17.847607 -45.039098 -5.528149 0.000000 0.000000 0.000000 24.605809 14.546719 9.355719 43.214975 36.782029 6.561042 2.874710 35.143423 2.687566 0.000000 0.000000 0.000000 
